<?xml version="1.0" standalone="no"?>
<!DOCTYPE svg PUBLIC "-//W3C//DTD SVG 20010904//EN"
 "http://www.w3.org/TR/2001/REC-SVG-20010904/DTD/svg10.dtd">
<svg version="1.0" xmlns="http://www.w3.org/2000/svg"
 width="996.000000pt" height="996.000000pt" viewBox="0 0 996.000000 996.000000"
 preserveAspectRatio="xMidYMid meet">
<metadata>
Created by potrace 1.11, written by Peter Selinger 2001-2013
</metadata>
<g transform="translate(0.000000,996.000000) scale(0.100000,-0.100000)"
fill="#000000" stroke="none">
<path d="M1255 9952 c-2 -2 5 -13 15 -25 10 -12 69 -87 132 -167 181 -229 468
-592 491 -622 12 -14 65 -81 117 -147 l95 -121 0 -465 0 -465 -942 0 c-519 0
-943 -3 -943 -6 0 -5 109 -145 229 -294 65 -80 128 -159 151 -190 14 -18 30
-38 35 -44 6 -6 29 -36 53 -67 l42 -56 0 -2417 0 -2417 -142 -177 c-79 -97
-150 -186 -160 -197 -50 -59 -208 -260 -208 -265 0 -3 421 -5 935 -4 653 0
935 -3 936 -10 1 -6 2 -211 3 -456 l1 -445 -190 -240 c-104 -132 -195 -247
-202 -255 -7 -8 -35 -44 -63 -80 -28 -36 -56 -72 -63 -80 -7 -8 -28 -35 -47
-60 -19 -25 -43 -54 -52 -65 -9 -11 -33 -40 -52 -65 l-35 -45 3331 -3 3331 -2
281 279 c155 154 385 382 511 506 127 125 380 375 563 557 l334 331 0 3210 0
3209 -168 168 c-93 93 -173 166 -179 163 -5 -4 -7 -2 -2 2 9 11 -624 646 -637
638 -5 -3 -6 -2 -3 3 8 13 -347 366 -358 357 -4 -5 -6 -3 -2 2 3 6 -111 128
-254 270 l-260 260 -3310 1 c-1820 0 -3311 -2 -3314 -4z m5881 -1841 c7 0 185
-173 396 -384 l385 -382 0 -2465 1 -2465 -380 -376 -381 -375 -1596 0 -1596 1
0 75 0 75 127 0 128 0 49 50 c27 28 279 279 560 558 l511 508 0 1941 0 1941
-330 331 c-181 182 -433 437 -561 566 l-231 235 -127 1 c-69 1 -129 2 -132 3
-6 1 -9 151 -4 161 3 5 3146 6 3181 1z m-5036 -3231 l0 -1970 -140 0 -140 0 0
1970 0 1970 140 0 140 0 0 -1970z m1944 1669 c16 -13 36 -31 45 -39 9 -9 46
-41 82 -73 l66 -57 0 -1487 0 -1488 -139 -136 c-132 -130 -138 -134 -139 -105
-1 40 -1 3438 0 3450 1 6 13 -2 29 -16 15 -14 40 -36 56 -49z"/>
</g>
</svg>
