<?xml version="1.0" encoding="utf-8"?>
<!-- Generator: Adobe Illustrator 24.1.1, SVG Export Plug-In . SVG Version: 6.00 Build 0)  -->
<svg version="1.1" id="Capa_1" xmlns="http://www.w3.org/2000/svg" xmlns:xlink="http://www.w3.org/1999/xlink" x="0px" y="0px"
	 viewBox="0 0 25 25" style="enable-background:new 0 0 25 25;" xml:space="preserve">
<style type="text/css">
	.st0{fill:#222221;}
</style>
<g id="XMLID_2024_">
	<path id="XMLID_2076_" class="st0" d="M12.63,5.28c2.4,0,2.69,0.01,3.64,0.05c0.88,0.04,1.35,0.19,1.67,0.31
		C18.36,5.8,18.66,6,18.97,6.31c0.32,0.32,0.51,0.61,0.67,1.03c0.12,0.32,0.27,0.79,0.31,1.67c0.04,0.95,0.05,1.23,0.05,3.64
		s-0.01,2.69-0.05,3.64c-0.04,0.88-0.19,1.35-0.31,1.67c-0.16,0.42-0.36,0.72-0.67,1.03c-0.31,0.31-0.61,0.51-1.03,0.67
		c-0.32,0.12-0.79,0.27-1.67,0.31c-0.95,0.04-1.23,0.05-3.64,0.05s-2.69-0.01-3.64-0.05c-0.88-0.04-1.35-0.19-1.67-0.31
		C6.9,19.51,6.6,19.31,6.29,19c-0.31-0.31-0.51-0.61-0.67-1.03c-0.12-0.32-0.27-0.79-0.31-1.67c-0.04-0.95-0.05-1.23-0.05-3.64
		S5.26,9.97,5.3,9.02c0.04-0.88,0.19-1.35,0.31-1.67c0.16-0.42,0.36-0.72,0.67-1.03C6.6,6,6.9,5.8,7.32,5.64
		c0.32-0.12,0.79-0.27,1.67-0.31C9.94,5.29,10.23,5.28,12.63,5.28 M12.63,3.66c-2.44,0-2.75,0.01-3.71,0.05
		c-0.96,0.04-1.61,0.2-2.18,0.42C6.14,4.36,5.64,4.67,5.14,5.17c-0.5,0.5-0.81,1-1.04,1.59C3.88,7.33,3.73,7.99,3.68,8.95
		c-0.04,0.96-0.05,1.27-0.05,3.71c0,2.44,0.01,2.75,0.05,3.71c0.04,0.96,0.2,1.61,0.42,2.18c0.23,0.59,0.54,1.09,1.04,1.59
		c0.5,0.5,1,0.81,1.59,1.04c0.57,0.22,1.23,0.37,2.18,0.42c0.96,0.04,1.27,0.05,3.71,0.05c2.44,0,2.75-0.01,3.71-0.05
		c0.96-0.04,1.61-0.2,2.18-0.42c0.59-0.23,1.09-0.54,1.59-1.04c0.5-0.5,0.81-1,1.04-1.59c0.22-0.57,0.37-1.23,0.42-2.18
		c0.04-0.96,0.05-1.27,0.05-3.71c0-2.44-0.01-2.75-0.05-3.71c-0.04-0.96-0.2-1.61-0.42-2.18c-0.23-0.59-0.54-1.09-1.04-1.59
		c-0.5-0.5-1-0.81-1.59-1.04c-0.57-0.22-1.23-0.37-2.18-0.42C15.38,3.67,15.07,3.66,12.63,3.66"/>
	<path id="XMLID_2073_" class="st0" d="M12.63,8.04c-2.55,0-4.62,2.07-4.62,4.62c0,2.55,2.07,4.62,4.62,4.62
		c2.55,0,4.62-2.07,4.62-4.62C17.25,10.1,15.18,8.04,12.63,8.04 M12.63,15.66c-1.66,0-3-1.34-3-3c0-1.66,1.34-3,3-3s3,1.34,3,3
		C15.63,14.31,14.29,15.66,12.63,15.66"/>
	<path id="XMLID_2025_" class="st0" d="M18.51,7.85c0,0.6-0.48,1.08-1.08,1.08c-0.6,0-1.08-0.48-1.08-1.08
		c0-0.6,0.48-1.08,1.08-1.08C18.03,6.77,18.51,7.26,18.51,7.85"/>
</g>
</svg>
