<?xml version="1.0" encoding="utf-8"?>
<!-- Generator: Adobe Illustrator 24.1.1, SVG Export Plug-In . SVG Version: 6.00 Build 0)  -->
<svg version="1.1" id="Capa_1" xmlns="http://www.w3.org/2000/svg" xmlns:xlink="http://www.w3.org/1999/xlink" x="0px" y="0px"
	 viewBox="0 0 25 25" style="enable-background:new 0 0 25 25;" xml:space="preserve">
<style type="text/css">
	.st0{fill-rule:evenodd;clip-rule:evenodd;fill:#222221;}
</style>
<g id="XMLID_2125_">
	<path id="XMLID_2127_" class="st0" d="M21.63,12.2c-0.12-4.74-4.03-8.54-8.83-8.54c-4.75,0-8.62,3.72-8.83,8.38
		c0,0.13-0.01,0.26-0.01,0.38c0,1.66,0.46,3.21,1.27,4.53l-1.59,4.7l4.89-1.56c1.27,0.69,2.72,1.09,4.27,1.09
		c4.88,0,8.84-3.93,8.84-8.77C21.63,12.35,21.63,12.28,21.63,12.2z M12.79,19.8c-1.51,0-2.91-0.45-4.09-1.22l-2.85,0.91l0.93-2.74
		c-0.89-1.22-1.41-2.71-1.41-4.32c0-0.24,0.01-0.48,0.04-0.72c0.36-3.73,3.54-6.65,7.39-6.65c3.9,0,7.11,3,7.41,6.8
		c0.02,0.19,0.02,0.38,0.02,0.57C20.22,16.49,16.89,19.8,12.79,19.8z"/>
	<path id="XMLID_2126_" class="st0" d="M16.84,14.2c-0.22-0.11-1.28-0.63-1.48-0.7c-0.2-0.07-0.34-0.11-0.49,0.11
		c-0.14,0.21-0.56,0.7-0.69,0.84c-0.13,0.14-0.25,0.16-0.47,0.05c-0.22-0.11-0.91-0.33-1.74-1.07c-0.64-0.57-1.08-1.27-1.2-1.48
		c-0.12-0.22-0.01-0.33,0.1-0.44c0.1-0.1,0.22-0.25,0.33-0.38c0.03-0.04,0.05-0.07,0.08-0.1c0.05-0.08,0.09-0.15,0.14-0.26
		c0.07-0.14,0.04-0.27-0.02-0.38c-0.05-0.11-0.49-1.17-0.67-1.6c-0.18-0.43-0.36-0.36-0.49-0.36c-0.12,0-0.27-0.02-0.41-0.02
		c-0.14,0-0.38,0.05-0.58,0.27c-0.2,0.22-0.76,0.74-0.76,1.8c0,0.25,0.05,0.5,0.11,0.73c0.22,0.76,0.69,1.38,0.77,1.49
		c0.11,0.14,1.5,2.38,3.7,3.25c2.2,0.86,2.2,0.57,2.6,0.53c0.4-0.03,1.28-0.52,1.46-1.02c0.18-0.5,0.18-0.93,0.13-1.02
		C17.2,14.36,17.06,14.3,16.84,14.2z"/>
</g>
</svg>
